<svg width="114" height="39" viewBox="0 0 114 39" fill="none" xmlns="http://www.w3.org/2000/svg">
<g filter="url(#filter0_d_40_267)">
<path d="M20.3719 5.60205C14.6161 5.60205 9.90674 9.9686 9.90674 15.3055C9.90674 20.6424 14.6161 25.0089 20.3719 25.0089C26.1278 25.0089 30.8371 20.6424 30.8371 15.3055C30.8371 9.9686 26.1278 5.60205 20.3719 5.60205Z" stroke="#292D32" stroke-width="10.8683"/>
<path d="M93.6283 5.60205C87.8724 5.60205 83.1631 9.9686 83.1631 15.3055C83.1631 20.6424 87.8724 25.0089 93.6283 25.0089C99.3841 25.0089 104.093 20.6424 104.093 15.3055C104.093 9.9686 99.3841 5.60205 93.6283 5.60205Z" stroke="#292D32" stroke-width="10.8683"/>
<path opacity="0.4" d="M57.0001 5.60205C51.2443 5.60205 46.5349 9.9686 46.5349 15.3055C46.5349 20.6424 51.2443 25.0089 57.0001 25.0089C62.756 25.0089 67.4653 20.6424 67.4653 15.3055C67.4653 9.9686 62.756 5.60205 57.0001 5.60205Z" stroke="#292D32" stroke-width="10.8683"/>
</g>
<defs>
<filter id="filter0_d_40_267" x="0.472656" y="0.167847" width="113.055" height="38.2753" filterUnits="userSpaceOnUse" color-interpolation-filters="sRGB">
<feFlood flood-opacity="0" result="BackgroundImageFix"/>
<feColorMatrix in="SourceAlpha" type="matrix" values="0 0 0 0 0 0 0 0 0 0 0 0 0 0 0 0 0 0 127 0" result="hardAlpha"/>
<feOffset dy="4"/>
<feGaussianBlur stdDeviation="2"/>
<feComposite in2="hardAlpha" operator="out"/>
<feColorMatrix type="matrix" values="0 0 0 0 0 0 0 0 0 0 0 0 0 0 0 0 0 0 0.25 0"/>
<feBlend mode="normal" in2="BackgroundImageFix" result="effect1_dropShadow_40_267"/>
<feBlend mode="normal" in="SourceGraphic" in2="effect1_dropShadow_40_267" result="shape"/>
</filter>
</defs>
</svg>
