<svg width="61" height="46" viewBox="0 0 61 46" fill="none" xmlns="http://www.w3.org/2000/svg">
<path d="M3.86835 0H28.6142C30.684 0 32.3581 1.20331 32.3581 2.68595V5.62976C32.3581 6.70414 31.4145 8.03638 30.4709 8.70249L22.4354 13.8166C21.3092 14.4827 20.5787 15.8149 20.5787 16.8893V22.648C20.5787 23.443 19.8177 24.5174 18.9046 24.9257L16.2565 26.1505C13.8215 27.2248 10.4429 26.0215 10.4429 23.8728V16.7604C10.4429 15.8149 9.68196 14.6116 8.95146 13.9455L1.82903 8.57357C0.885455 7.90745 0.124512 6.70414 0.124512 5.9091V2.81488C0.124512 1.20331 1.79859 0 3.86835 0Z" fill="#736D6D"/>
<path d="M45.7811 2.14868H38.4761C37.6238 2.14868 36.9542 2.62141 36.9542 3.22306V5.62968C36.9542 7.75695 35.341 9.84125 33.7582 10.9801L25.4792 16.2016C25.3878 16.352 25.2357 16.5669 25.1443 16.7388V22.6479C25.1443 24.6033 23.5007 26.7305 21.2483 27.6975L18.7524 28.8363C17.3523 29.4595 15.7999 29.7603 14.2476 29.7603C12.8475 29.7603 11.4474 29.5024 10.169 29.0082C8.59394 28.3924 7.4047 27.4633 6.67806 26.373C6.30681 25.8158 6.21206 25.1931 6.21206 24.5775V19.79C6.21206 19.5107 6.05987 19.2313 5.75549 19.038L2.71172 16.8892C1.76815 16.2016 0.124512 16.6743 0.124512 17.6413V34.3801C0.124512 40.3107 6.94257 45.1239 15.3434 45.1239H45.7811C54.1819 45.1239 61 40.3107 61 34.3801V12.8925C61 6.96191 54.1819 2.14868 45.7811 2.14868ZM48.8249 35.9917H27.5185C26.2705 35.9917 25.2357 35.2611 25.2357 34.3801C25.2357 33.4991 26.2705 32.7686 27.5185 32.7686H48.8249C50.0728 32.7686 51.1077 33.4991 51.1077 34.3801C51.1077 35.2611 50.0728 35.9917 48.8249 35.9917ZM48.8249 27.3966H33.606C32.3581 27.3966 31.3232 26.6661 31.3232 25.7851C31.3232 24.9041 32.3581 24.1735 33.606 24.1735H48.8249C50.0728 24.1735 51.1077 24.9041 51.1077 25.7851C51.1077 26.6661 50.0728 27.3966 48.8249 27.3966Z" fill="#736D6D"/>
</svg>
