<svg width="9" height="17" viewBox="0 0 9 17" fill="none" xmlns="http://www.w3.org/2000/svg">
<path d="M5.74516 2.0369C5.74516 2.45461 5.5457 2.85521 5.19067 3.15058C4.83563 3.44595 4.3541 3.61188 3.852 3.61188C3.3499 3.61188 2.86837 3.44595 2.51333 3.15058C2.15829 2.85521 1.95884 2.45461 1.95884 2.0369C1.95884 1.61919 2.15829 1.21858 2.51333 0.923217C2.86837 0.62785 3.3499 0.461914 3.852 0.461914C4.3541 0.461914 4.83563 0.62785 5.19067 0.923217C5.5457 1.21858 5.74516 1.61919 5.74516 2.0369ZM0.0656738 7.94309C0.0656738 7.62981 0.215268 7.32936 0.481545 7.10783C0.747823 6.88631 1.10897 6.76186 1.48555 6.76186H4.32529C4.70186 6.76186 5.06301 6.88631 5.32929 7.10783C5.59557 7.32936 5.74516 7.62981 5.74516 7.94309V14.6368H7.16503C7.54161 14.6368 7.90276 14.7612 8.16903 14.9828C8.43531 15.2043 8.58491 15.5047 8.58491 15.818C8.58491 16.1313 8.43531 16.4318 8.16903 16.6533C7.90276 16.8748 7.54161 16.9993 7.16503 16.9993H1.48555C1.10897 16.9993 0.747823 16.8748 0.481545 16.6533C0.215268 16.4318 0.0656738 16.1313 0.0656738 15.818C0.0656738 15.5047 0.215268 15.2043 0.481545 14.9828C0.747823 14.7612 1.10897 14.6368 1.48555 14.6368H2.90542V9.12433H1.48555C1.10897 9.12433 0.747823 8.99988 0.481545 8.77836C0.215268 8.55683 0.0656738 8.25638 0.0656738 7.94309Z" fill="black"/>
</svg>
