<svg width="34" height="31" viewBox="0 0 34 31" fill="none" xmlns="http://www.w3.org/2000/svg">
<path d="M25.6691 30.2008C24.8642 30.2008 23.8315 29.968 22.5406 29.2833L17.9996 26.8595C17.5288 26.6131 16.6176 26.6131 16.1619 26.8595L11.6058 29.2833C8.9177 30.7211 7.33823 30.146 6.62444 29.6804C5.92583 29.2148 4.83235 28.0235 5.54615 25.2848L6.62444 21.0809C6.74593 20.6427 6.50294 19.8895 6.13845 19.5609L2.37203 16.1649C0.488824 14.4669 0.640695 13.0154 0.898877 12.3033C1.15706 11.5912 1.97716 10.3314 4.58936 9.93433L9.43406 9.20858C9.88968 9.14011 10.5427 8.70192 10.7402 8.33219L13.4283 3.49839C14.6432 1.29373 16.2379 0.965088 17.0732 0.965088C17.9085 0.965088 19.5031 1.29373 20.7181 3.49839L23.391 8.3185C23.6037 8.68822 24.2567 9.12642 24.7123 9.19488L29.557 9.92064C32.1844 10.3178 33.0045 11.5776 33.2475 12.2896C33.4905 13.0017 33.6424 14.4532 31.7743 16.1512L28.0079 19.5609C27.6434 19.8895 27.4156 20.629 27.5219 21.0809L28.6002 25.2848C29.2988 28.0235 28.2205 29.2148 27.5219 29.6804C27.1423 29.9269 26.5348 30.2008 25.6691 30.2008ZM17.0732 24.6138C17.8173 24.6138 18.5615 24.7781 19.1538 25.0931L23.6948 27.5168C25.0161 28.2289 25.8514 28.2289 26.1703 28.0235C26.4892 27.8181 26.717 27.0923 26.3829 25.7504L25.3046 21.5465C25.0161 20.4099 25.4869 18.9447 26.3981 18.1094L30.1645 14.7134C30.9087 14.0424 31.2428 13.3851 31.0909 12.9332C30.9239 12.4813 30.2253 12.1116 29.1925 11.961L24.3478 11.2352C23.1784 11.0572 21.9027 10.2082 21.3711 9.24966L18.6982 4.42954C18.2122 3.55316 17.6047 3.03281 17.0732 3.03281C16.5416 3.03281 15.9341 3.55316 15.4633 4.42954L12.7752 9.24966C12.2437 10.2082 10.968 11.0572 9.79855 11.2352L4.96904 11.961C3.93631 12.1116 3.2377 12.4813 3.07064 12.9332C2.90358 13.3851 3.25289 14.0561 3.99706 14.7134L7.76347 18.1094C8.6747 18.931 9.1455 20.4099 8.85695 21.5465L7.77866 25.7504C7.42936 27.106 7.67235 27.8181 7.99128 28.0235C8.31021 28.2289 9.13032 28.2152 10.4668 27.5168L15.0077 25.0931C15.5848 24.7781 16.329 24.6138 17.0732 24.6138Z" fill="#292D32"/>
</svg>
