<svg width="36" height="33" viewBox="0 0 36 33" fill="none" xmlns="http://www.w3.org/2000/svg">
<path fill-rule="evenodd" clip-rule="evenodd" d="M17.6617 0.882324C8.02217 0.882324 0.2146 8.08607 0.2146 16.9801C0.2146 24.1033 5.20883 30.1199 12.144 32.2528C13.0164 32.3937 13.3435 31.9108 13.3435 31.4882C13.3435 31.1059 13.3217 29.8382 13.3217 28.49C8.93814 29.2345 7.80408 27.504 7.45514 26.5985C7.25886 26.1357 6.40831 24.707 5.66681 24.3247C5.05617 24.0229 4.18381 23.2783 5.645 23.2582C7.01896 23.2381 8.00036 24.4253 8.32749 24.9082C9.89773 27.343 12.4057 26.6589 13.409 26.2363C13.5616 25.1899 14.0196 24.4857 14.5212 24.0832C10.6392 23.6808 6.58278 22.2923 6.58278 16.135C6.58278 14.3843 7.25886 12.9355 8.37111 11.8087C8.19664 11.4062 7.58599 9.75622 8.54558 7.54277C8.54558 7.54277 10.0068 7.12021 13.3435 9.19279C14.7393 8.83059 16.2223 8.64949 17.7053 8.64949C19.1883 8.64949 20.6713 8.83059 22.0671 9.19279C25.4038 7.10009 26.865 7.54277 26.865 7.54277C27.8246 9.75622 27.214 11.4062 27.0395 11.8087C28.1517 12.9355 28.8278 14.3642 28.8278 16.135C28.8278 22.3125 24.7496 23.6808 20.8676 24.0832C21.5 24.5863 22.0453 25.5521 22.0453 27.0613C22.0453 29.2144 22.0235 30.9449 22.0235 31.4882C22.0235 31.9108 22.3506 32.4138 23.2229 32.2528C26.6865 31.174 29.6962 29.1202 31.8284 26.3804C33.9605 23.6407 35.1078 20.353 35.1088 16.9801C35.1088 8.08607 27.3012 0.882324 17.6617 0.882324Z" fill="black"/>
</svg>
