<svg width="42" height="36" viewBox="0 0 42 36" fill="none" xmlns="http://www.w3.org/2000/svg">
<path fill-rule="evenodd" clip-rule="evenodd" d="M20.8518 0.799561C9.35128 0.799561 0.027832 8.55636 0.027832 18.1244C0.027832 27.6924 9.35128 35.4492 20.8518 35.4492C32.3523 35.4492 41.6757 27.6924 41.6757 18.1244C41.6757 8.55636 32.3523 0.799561 20.8518 0.799561ZM2.86746 18.1244C2.86746 14.1561 4.76223 10.3504 8.13494 7.54441C11.5077 4.73843 16.082 3.16204 20.8518 3.16204C25.6215 3.16204 30.1959 4.73843 33.5686 7.54441C36.9413 10.3504 38.8361 14.1561 38.8361 18.1244C38.8361 22.0927 36.9413 25.8984 33.5686 28.7044C30.1959 31.5104 25.6215 33.0868 20.8518 33.0868C16.082 33.0868 11.5077 31.5104 8.13494 28.7044C4.76223 25.8984 2.86746 22.0927 2.86746 18.1244Z" fill="black"/>
</svg>
